<?xml version="1.0" encoding="utf-8"?>
<!-- Generator: Adobe Illustrator 19.2.0, SVG Export Plug-In . SVG Version: 6.00 Build 0)  -->
<svg version="1.1" id="Layer_1" xmlns="http://www.w3.org/2000/svg" xmlns:xlink="http://www.w3.org/1999/xlink" x="0px" y="0px"
	 width="51px" height="51px" viewBox="-49 141 512 512" style="enable-background:new -49 141 512 512;" xml:space="preserve" fill="#653294">
<path d="M452.8,329.5H446c-6.7-33.8-40.8-93.3-55.9-118.5c7.1-4.9,11.7-13,11.7-22.3c0-14.9-12.1-27-27-27c-14.9,0-27,12.1-27,27
	c0,9.2,4.7,17.4,11.7,22.3c-15.1,25.2-49.3,84.7-55.9,118.5h-6.8c-5.6,0-10.2,4.6-10.2,10.2c0,48.7,39.6,88.2,88.2,88.2
	s88.2-39.6,88.2-88.2C463,334,458.4,329.5,452.8,329.5z M374.8,182.1c3.7,0,6.6,3,6.6,6.6s-3,6.6-6.6,6.6c-3.7,0-6.6-3-6.6-6.6
	C368.1,185.1,371.1,182.1,374.8,182.1z M374.7,225.2c17.3,29.1,43.9,77.7,50.5,104.3H324.3C330.5,304.6,354.5,259.2,374.7,225.2z
	 M374.8,407.5c-33.9,0-62.1-25.1-67.1-57.6h134.2C436.9,382.5,408.7,407.5,374.8,407.5z"/>
<path d="M297.8,573.7h-27v-25.9c0-5.6-4.6-10.2-10.2-10.2h-25.9V252.7c6.7-6.6,11-15.6,11.5-25.6l43.1-9.3c5.5-1.2,9-6.6,7.8-12.1
	c-1.2-5.5-6.6-9-12.1-7.8l-43.2,9.3c-6.5-12.3-19.4-20.7-34.3-20.7c-20.6,0-37.4,16.1-38.6,36.4L61.1,246.1
	c-4.9-6.7-12.9-11.1-21.8-11.1c-14.9,0-27,12.1-27,27c0,9.2,4.7,17.4,11.7,22.3C8.8,309.5-25.3,368.9-32,402.7h-6.8
	c-5.6,0-10.2,4.6-10.2,10.2c0,48.7,39.6,88.2,88.2,88.2s88.2-39.6,88.2-88.2c0-5.6-4.6-10.2-10.2-10.2h-6.8
	c-6.7-33.8-40.8-93.3-55.9-118.5c6.1-4.2,10.4-10.8,11.5-18.4l107.1-23.1c1.9,3.7,4.3,7,7.2,9.8v284.9h-25.9
	c-5.6,0-10.2,4.6-10.2,10.2v25.9h-27c-5.6,0-10.2,4.6-10.2,10.2v38.2c0,5.6,4.6,10.2,10.2,10.2h180.5c5.6,0,10.2-4.6,10.2-10.2
	v-38.2C308,578.2,303.4,573.7,297.8,573.7z M207.5,206.9c10.1,0,18.3,8.2,18.3,18.3c0,10.1-8.2,18.3-18.3,18.3s-18.3-8.2-18.3-18.3
	C189.2,215.1,197.4,206.9,207.5,206.9z M39.2,255.4c3.7,0,6.6,3,6.6,6.6c0,3.7-3,6.6-6.6,6.6s-6.6-3-6.6-6.6
	C32.6,258.3,35.6,255.4,39.2,255.4z M39.2,480.8c-33.9,0-62.1-25.1-67.1-57.6h134.2C101.4,455.7,73.2,480.8,39.2,480.8z
	 M-11.2,402.7C-5,377.8,19,332.5,39.2,298.5c17.3,29.1,43.9,77.7,50.5,104.3H-11.2z M200.7,263.3c2.2,0.4,4.5,0.6,6.8,0.6
	s4.6-0.2,6.8-0.6v274.3h-13.6V263.3z M250.4,558v15.7h-85.8V558H250.4z M287.6,594.1v17.8H127.5v-17.8H287.6L287.6,594.1z"/>
<path d="M319,211.8c0.7,0,1.4-0.1,2.2-0.2l7.4-1.6c5.5-1.2,9-6.6,7.8-12.1c-1.2-5.5-6.6-9-12.1-7.8l-7.4,1.6
	c-5.5,1.2-9,6.6-7.8,12.1C310.1,208.6,314.3,211.8,319,211.8z"/>
</svg>
