<?xml version="1.0" encoding="utf-8"?>
<!-- Generator: Adobe Illustrator 19.2.0, SVG Export Plug-In . SVG Version: 6.00 Build 0)  -->
<svg version="1.1" id="Layer_1" xmlns="http://www.w3.org/2000/svg" xmlns:xlink="http://www.w3.org/1999/xlink" x="0px" y="0px"
	 width="51px" height="51px" viewBox="-49 141 512 512" style="enable-background:new -49 141 512 512;" xml:space="preserve" fill="#653294">
<path d="M382.3,141H31.7c-5.6,0-10.2,4.6-10.2,10.2v491.6c0,5.6,4.6,10.2,10.2,10.2h266.6c2.7,0,5.3-1.1,7.2-3l84-84
	c1.9-1.9,3-4.5,3-7.2V151.2C392.5,145.6,387.9,141,382.3,141z M41.9,161.4h330.2v387.2l-73.9-0.1c0,0,0,0,0,0c-2.7,0-5.3,1.1-7.2,3
	c-1.9,1.9-3,4.5-3,7.2l0.1,73.9H41.9V161.4z M308.4,568.9l49.3,0l-49.2,49.2L308.4,568.9z"/>
<path d="M130.8,226.8l-30,30l-7.5-7.5c-4-4-10.4-4-14.4,0s-4,10.4,0,14.4l14.7,14.7c1.9,1.9,4.5,3,7.2,3c2.7,0,5.3-1.1,7.2-3
	l37.2-37.2c4-4,4-10.4,0-14.4C141.3,222.8,134.8,222.8,130.8,226.8z"/>
<path d="M324.3,267.5h3.6c5.6,0,10.2-4.6,10.2-10.2s-4.6-10.2-10.2-10.2h-3.6c-5.6,0-10.2,4.6-10.2,10.2S318.7,267.5,324.3,267.5z"
	/>
<path d="M177.5,267.5h114.2c5.6,0,10.2-4.6,10.2-10.2s-4.6-10.2-10.2-10.2H177.5c-5.6,0-10.2,4.6-10.2,10.2S171.8,267.5,177.5,267.5
	z"/>
<path d="M130.8,325.5l-30,30l-7.5-7.5c-4-4-10.4-4-14.4,0s-4,10.4,0,14.4l14.7,14.7c1.9,1.9,4.5,3,7.2,3c2.7,0,5.3-1.1,7.2-3
	l37.2-37.2c4-4,4-10.4,0-14.4C141.3,321.5,134.8,321.5,130.8,325.5z"/>
<path d="M177.5,366.3h150.4c5.6,0,10.2-4.6,10.2-10.2c0-5.6-4.6-10.2-10.2-10.2H177.5c-5.6,0-10.2,4.6-10.2,10.2
	C167.3,361.7,171.8,366.3,177.5,366.3z"/>
<path d="M130.8,424l-30,30l-7.5-7.5c-4-4-10.4-4-14.4,0s-4,10.4,0,14.4l14.7,14.7c1.9,1.9,4.5,3,7.2,3c2.7,0,5.3-1.1,7.2-3
	l37.2-37.2c4-4,4-10.4,0-14.4C141.3,420,134.8,420,130.8,424z"/>
<path d="M338.1,454.5c0-5.6-4.6-10.2-10.2-10.2H177.5c-5.6,0-10.2,4.6-10.2,10.2s4.6,10.2,10.2,10.2h150.4
	C333.5,464.7,338.1,460.1,338.1,454.5z"/>
</svg>
