<?xml version="1.0" encoding="utf-8"?>
<!-- Generator: Adobe Illustrator 19.2.0, SVG Export Plug-In . SVG Version: 6.00 Build 0)  -->
<svg version="1.1" id="Layer_1" xmlns="http://www.w3.org/2000/svg" xmlns:xlink="http://www.w3.org/1999/xlink" x="0px" y="0px"
	 width="51px" height="51px" viewBox="-49 141 512 512" style="enable-background:new -49 141 512 512;" xml:space="preserve" fill="#653294">
<path d="M389.5,144c-1.9-1.9-4.5-3-7.2-3H31.7c-5.6,0-10.2,4.6-10.2,10.2v491.6c0,5.6,4.6,10.2,10.2,10.2h349.7
	c5.6,0,10.2-4.6,10.2-10.2l0.9-491.6C392.5,148.5,391.4,145.9,389.5,144z M371.2,632.6H41.9V161.4h330.1L371.2,632.6z"/>
<path d="M309.1,515.9c0-29-23.6-52.6-52.6-52.6s-52.6,23.6-52.6,52.6c0,1.4,0.1,2.8,0.2,4.2l-47.1,47.2c-2.8,2.8-3.7,6.9-2.4,10.6
	c1.3,3.7,4.6,6.3,8.5,6.8l22.2,2.5l2.5,22.2c0.4,3.9,3.1,7.2,6.8,8.5c1.1,0.4,2.2,0.6,3.4,0.6c2.7,0,5.3-1,7.2-3l47-47.1
	c1.5,0.1,2.9,0.2,4.4,0.2c1.5,0,2.9-0.1,4.4-0.2l46.6,47.1c1.9,2,4.6,3,7.2,3c1.1,0,2.2-0.2,3.3-0.6c3.7-1.3,6.3-4.6,6.8-8.5
	l2.5-22.2l22.2-2.5c3.9-0.4,7.2-3.1,8.5-6.8c1.3-3.7,0.4-7.8-2.4-10.6l-46.8-47.2C309,518.8,309.1,517.4,309.1,515.9z M256.5,483.7
	c17.8,0,32.2,14.5,32.2,32.2c0,17.8-14.5,32.2-32.2,32.2c-17.8,0-32.2-14.5-32.2-32.2C224.2,498.2,238.7,483.7,256.5,483.7z
	 M205.6,586.1l-1.1-9.2c-0.5-4.7-4.3-8.4-9-9l-9.3-1.1l24.6-24.7c4.6,8,11.3,14.7,19.3,19.3L205.6,586.1z M326.4,566.8l-9.4,1.1
	c-4.7,0.5-8.4,4.3-9,9l-1,9.1l-24.3-24.5c8-4.6,14.7-11.3,19.3-19.3L326.4,566.8z"/>
<path d="M82.6,513.3h78.5c5.6,0,10.2-4.6,10.2-10.2s-4.6-10.2-10.2-10.2H82.6c-5.6,0-10.2,4.6-10.2,10.2S76.9,513.3,82.6,513.3z"/>
<path d="M165.7,222.6h82.6c5.6,0,10.2-4.6,10.2-10.2s-4.6-10.2-10.2-10.2h-82.6c-5.6,0-10.2,4.6-10.2,10.2S160.1,222.6,165.7,222.6z
	"/>
<path d="M87.2,265.4h239.7c5.6,0,10.2-4.6,10.2-10.2s-4.6-10.2-10.2-10.2H87.2c-5.6,0-10.2,4.6-10.2,10.2S81.5,265.4,87.2,265.4z"/>
<path d="M174.4,335.8H282c5.6,0,10.2-4.6,10.2-10.2c0-5.6-4.6-10.2-10.2-10.2H174.4c-5.6,0-10.2,4.6-10.2,10.2
	C164.2,331.2,168.7,335.8,174.4,335.8z"/>
<path d="M137.6,315.4H132c-5.6,0-10.2,4.6-10.2,10.2c0,5.6,4.6,10.2,10.2,10.2h5.6c5.6,0,10.2-4.6,10.2-10.2
	C147.8,320,143.3,315.4,137.6,315.4z"/>
<path d="M174.4,375.6H282c5.6,0,10.2-4.6,10.2-10.2s-4.6-10.2-10.2-10.2H174.4c-5.6,0-10.2,4.6-10.2,10.2S168.7,375.6,174.4,375.6z"
	/>
<path d="M137.6,355.2H132c-5.6,0-10.2,4.6-10.2,10.2s4.6,10.2,10.2,10.2h5.6c5.6,0,10.2-4.6,10.2-10.2S143.3,355.2,137.6,355.2z"/>
<path d="M174.4,416.4H282c5.6,0,10.2-4.6,10.2-10.2S287.6,396,282,396H174.4c-5.6,0-10.2,4.6-10.2,10.2S168.7,416.4,174.4,416.4z"/>
<path d="M137.6,396H132c-5.6,0-10.2,4.6-10.2,10.2s4.6,10.2,10.2,10.2h5.6c5.6,0,10.2-4.6,10.2-10.2S143.3,396,137.6,396z"/>
</svg>
