<?xml version="1.0" encoding="utf-8"?>
<!-- Generator: Adobe Illustrator 20.1.0, SVG Export Plug-In . SVG Version: 6.00 Build 0)  -->
<svg version="1.1" id="Layer_1" xmlns="http://www.w3.org/2000/svg" xmlns:xlink="http://www.w3.org/1999/xlink" x="0px" y="0px"
	 width="352.8px" height="353px" viewBox="0 0 352.8 353" style="enable-background:new 0 0 352.8 353;" xml:space="preserve">
<style type="text/css">
	.st0{clip-path:url(#SVGID_2_);}
</style>
<g>
	<g>
		<defs>
			<rect id="SVGID_1_" width="352.8" height="353"/>
		</defs>
		<clipPath id="SVGID_2_">
			<use xlink:href="#SVGID_1_"  style="overflow:visible;"/>
		</clipPath>
		<path class="st0" d="M30.6,329.3c0.7,0.7,1.6,1.4,2.5,2l12.5,7.7c0.5,0.2,1.1,0.7,1.6,0.9c18.8,8.4,39.9,12.7,61,12.7
			c36.3,0,68.7-12.7,91.6-35.6l117.6-117.6c36.5-36.5,45.6-99.1,22-152.1c-0.2-0.7-0.7-1.4-1.1-2l-7.9-12c-0.5-0.7-1.1-1.4-1.6-2
			l-21.1-21.1C301.1,3.6,292.2,0,283.1,0c-8.4,0-16.5,3.4-22.4,9.3l-61.2,61.2c-12.9,12.9-12.5,34,0.7,47.1l24,24l-81.8,81.8
			L117.9,199c-5.9-6.6-14.3-10-23.3-10c-8.6,0-16.8,3.4-23.1,9.5l-61.2,61.2c-6.1,6.1-9.7,14.7-10.2,23.6
			c-0.5,9.3,2.9,18.4,9.3,24.7L30.6,329.3z M29.5,279l61.2-61.2c2.3-2.3,5.9-2,8.4,0.5l34,34c5.2,5.2,13.8,5.2,19.3,0l100.9-100.9
			c2.5-2.5,4.1-6.1,4.1-9.5c0-3.4-1.4-7-4.1-9.5l-33.5-34c-2.5-2.5-2.9-6.6-0.7-8.8l61.2-61.2c0.9-0.9,1.8-1.4,3.2-1.4
			c1.8,0,3.9,0.9,5.2,2.3l19.9,19.9l6.6,10c21.5,49.9,6.6,97.5-16.8,120.6L180.7,297.8c-17.9,17.9-43.5,27.7-72.5,27.7
			c-17,0-34-3.4-49-10l-10.4-6.3L28.6,289c-1.4-1.4-1.4-3.4-1.4-4.3C27.5,282.4,28.4,280.4,29.5,279L29.5,279z M29.5,279"/>
	</g>
</g>
</svg>
