<?xml version="1.0" encoding="utf-8"?>
<!-- Generator: Adobe Illustrator 20.1.0, SVG Export Plug-In . SVG Version: 6.00 Build 0)  -->
<svg version="1.1" id="Layer_1" xmlns="http://www.w3.org/2000/svg" xmlns:xlink="http://www.w3.org/1999/xlink" x="0px" y="0px"
	 width="37px" height="49px" viewBox="0 0 37 49" enable-background="new 0 0 37 49" xml:space="preserve">
<g>
	<path d="M23.1,41c-1.5,0-2.8,1.3-2.8,2.8c0,1.5,1.3,2.8,2.8,2.8c1.5,0,2.8-1.3,2.8-2.8C25.9,42.3,24.6,41,23.1,41L23.1,41z
		 M23.1,45c-0.7,0-1.2-0.5-1.2-1.2c0-0.7,0.5-1.2,1.2-1.2s1.2,0.5,1.2,1.2C24.3,44.5,23.7,45,23.1,45L23.1,45z M23.1,45"/>
	<path d="M26.7,30.6c1.8,0,3.2-1.4,3.2-3.2c0-1.8-1.4-3.2-3.2-3.2c-1.8,0-3.2,1.4-3.2,3.2C23.5,29.2,24.9,30.6,26.7,30.6L26.7,30.6z
		 M26.7,25.8c0.9,0,1.6,0.7,1.6,1.6c0,0.9-0.7,1.6-1.6,1.6c-0.9,0-1.6-0.7-1.6-1.6C25.1,26.5,25.8,25.8,26.7,25.8L26.7,25.8z
		 M26.7,25.8"/>
	<g>
		<defs>
			<rect id="SVGID_1_" width="37" height="49"/>
		</defs>
		<clipPath id="SVGID_2_">
			<use xlink:href="#SVGID_1_"  overflow="visible"/>
		</clipPath>
		<path clip-path="url(#SVGID_2_)" d="M7.5,10.6c0.2,0,0.4-0.1,0.6-0.2l1.6-1.6c0.3-0.3,0.3-0.8,0-1.1c-0.3-0.3-0.8-0.3-1.1,0
			L6.9,9.2c-0.3,0.3-0.3,0.8,0,1.1C7.1,10.5,7.3,10.6,7.5,10.6L7.5,10.6z M7.5,10.6"/>
		<path clip-path="url(#SVGID_2_)" d="M36.3,24.8c0-0.7-0.3-1.4-0.8-1.9l-0.5-0.4c0.8-0.7,1.2-1.6,1.2-2.7c0-2-1.6-3.6-3.6-3.6
			c-0.1,0-0.3,0-0.4,0c0-0.1,0-0.3,0-0.4c0-2-1.6-3.6-3.6-3.6c-0.1,0-0.3,0-0.4,0c0-0.1,0-0.3,0-0.4c0-2-1.6-3.6-3.6-3.6
			c-0.1,0-0.3,0-0.4,0c0-0.1,0-0.3,0-0.4c0-2-1.6-3.6-3.6-3.6c-1,0-2,0.5-2.7,1.2l-0.6-0.6l-3-3c-1-1-2.7-1-3.7,0l-9.9,9.9
			c-1,1-1,2.7,0,3.7l6.9,6.9c-1.1,0.6-1.8,1.8-1.8,3.1c0,1.3,0.6,2.4,1.6,3c0,0.1,0.1,0.1,0.2,0.2l8.6,8.6v1.4h-1.6V49h20.8V38.6
			h-1.6v-2.4c1.5-1.3,2.4-3.2,2.4-5.2c0-1.4-0.4-2.7-1.2-3.9l0.5-0.5C36,26.2,36.3,25.5,36.3,24.8L36.3,24.8z M34.7,19.8
			c0,0.6-0.3,1.2-0.8,1.6l-2.8-2.8c0.4-0.5,0.9-0.7,1.6-0.7C33.8,17.8,34.7,18.7,34.7,19.8L34.7,19.8z M30.7,15.8
			c0,0.6-0.3,1.2-0.8,1.6l-2.8-2.8c0.4-0.5,0.9-0.7,1.6-0.7C29.8,13.8,30.7,14.7,30.7,15.8L30.7,15.8z M26.7,11.8
			c0,0.6-0.3,1.2-0.8,1.6l-2.8-2.8c0.4-0.5,0.9-0.7,1.6-0.7C25.8,9.8,26.7,10.7,26.7,11.8L26.7,11.8z M20.7,5.8c1.1,0,2,0.9,2,2
			c0,0.6-0.3,1.2-0.8,1.6l-2.8-2.8C19.5,6.1,20.1,5.8,20.7,5.8L20.7,5.8z M1.9,14.2c-0.4-0.4-0.4-1.1,0-1.5l9.8-9.9
			c0.1-0.1,0.2-0.2,0.3-0.2c0.1,0,0.1,0,0.2,0c0.1,0,0.3,0,0.4,0c0.1,0,0.1,0,0.2,0c0.1,0.1,0.2,0.1,0.3,0.2l1.9,1.9L3.8,16.1
			L1.9,14.2z M16.2,5.9l18.2,18.2c0.4,0.4,0.4,1.1,0,1.5L34,25.9l-9.5,9.5c-0.4,0.4-1.1,0.4-1.5,0L16.7,29h0.8c2,0,3.6-1.6,3.6-3.6
			c0-2-1.6-3.6-3.6-3.6h-8l-4.6-4.6L16.2,5.9z M9.1,23.4l0.3,0c0,0,0.1,0,0.1,0h8c1.1,0,2,0.9,2,2c0,1.1-0.9,2-2,2h-8
			c-1.1,0-2-0.9-2-2C7.5,24.4,8.2,23.6,9.1,23.4L9.1,23.4z M16.3,47.4v-7.2H23c2.5,0,4.5,2,4.5,4.5v2.7H16.3z M33.9,47.4h-4.8v-2.7
			c0-1.8-0.8-3.4-2-4.5h6.8V47.4z M33.9,28.3c0.5,0.8,0.8,1.8,0.8,2.7c0,1.6-0.8,3.2-2.1,4.2l-0.3,0.2v3.2H17.9v-2.2l-0.3-0.2
			c0,0-0.1-0.1-0.1-0.1L10.4,29h4.1l7.5,7.5c0.5,0.5,1.2,0.8,1.9,0.8c0.7,0,1.3-0.3,1.9-0.8L33.9,28.3z M33.9,28.3"/>
	</g>
</g>
</svg>
