<?xml version="1.0" encoding="utf-8"?>
<!-- Generator: Adobe Illustrator 20.1.0, SVG Export Plug-In . SVG Version: 6.00 Build 0)  -->
<svg version="1.1" id="Layer_1" xmlns="http://www.w3.org/2000/svg" xmlns:xlink="http://www.w3.org/1999/xlink" x="0px" y="0px"
	 width="512px" height="512px" viewBox="-49 141 512 512" enable-background="new -49 141 512 512" xml:space="preserve">
<path d="M348.5,265.6v-57.2c0-5.6-4.6-10.2-10.2-10.2H-38.8c-5.6,0-10.2,4.6-10.2,10.2v377.1c0,5.6,4.6,10.2,10.2,10.2h377.1
	c5.6,0,10.2-4.6,10.2-10.2l0-215.1l106-106c5.5-5.5,8.5-12.8,8.5-20.5s-3-15-8.5-20.5L443.1,212c-5.5-5.5-12.8-8.5-20.5-8.5
	s-15,3-20.5,8.5L348.5,265.6z M181,509l-35.3,11.8l11.8-35.3L374,268.9l23.5,23.5L181,509z M328.1,575.3H-28.6V218.7h356.7V286
	L141.3,472.8c-1.1,1.1-2,2.5-2.5,4l-19,56.9c-1.2,3.7-0.3,7.7,2.5,10.4c1.9,1.9,4.6,3,7.2,3c1.1,0,2.2-0.2,3.2-0.5l56.9-19
	c1.5-0.5,2.9-1.3,4-2.5l134.3-134.3V575.3z M440.1,249.9L412,278l-11.8-11.8l-11.8-11.8l28.1-28.1c1.6-1.6,3.8-2.5,6.1-2.5
	s4.5,0.9,6.1,2.5l11.4,11.4c0,0,0,0,0,0c1.6,1.6,2.5,3.8,2.5,6.1C442.6,246.2,441.7,248.3,440.1,249.9z"/>
<path d="M259.4,282.4h9.7c5.6,0,10.2-4.6,10.2-10.2c0-5.6-4.6-10.2-10.2-10.2h-9.7c-5.6,0-10.2,4.6-10.2,10.2
	C249.2,277.8,253.8,282.4,259.4,282.4z"/>
<path d="M29.3,282.4h185.8c5.6,0,10.2-4.6,10.2-10.2c0-5.6-4.6-10.2-10.2-10.2H29.3c-5.6,0-10.2,4.6-10.2,10.2
	C19.1,277.8,23.6,282.4,29.3,282.4z"/>
<path d="M29.3,341.8h176.1c5.6,0,10.2-4.6,10.2-10.2c0-5.6-4.6-10.2-10.2-10.2H29.3c-5.6,0-10.2,4.6-10.2,10.2
	C19.1,337.3,23.6,341.8,29.3,341.8z"/>
<path d="M29.3,401.3h112.4c5.6,0,10.2-4.6,10.2-10.2c0-5.6-4.6-10.2-10.2-10.2H29.3c-5.6,0-10.2,4.6-10.2,10.2
	C19.1,396.7,23.6,401.3,29.3,401.3z"/>
<path d="M93,439.2H29.3c-5.6,0-10.2,4.6-10.2,10.2c0,5.6,4.6,10.2,10.2,10.2H93c5.6,0,10.2-4.6,10.2-10.2
	C103.2,443.8,98.6,439.2,93,439.2z"/>
</svg>
