<?xml version="1.0" encoding="utf-8"?>
<!-- Generator: Adobe Illustrator 20.1.0, SVG Export Plug-In . SVG Version: 6.00 Build 0)  -->
<svg version="1.1" id="Layer_1" xmlns="http://www.w3.org/2000/svg" xmlns:xlink="http://www.w3.org/1999/xlink" x="0px" y="0px"
	 width="371px" height="512px" viewBox="21.5 141 371 512" enable-background="new 21.5 141 371 512" xml:space="preserve">
<path d="M382.3,141H31.7c-5.6,0-10.2,4.6-10.2,10.2v491.6c0,5.6,4.6,10.2,10.2,10.2h266.6c2.7,0,5.3-1.1,7.2-3l84-84
	c1.9-1.9,3-4.5,3-7.2V151.2C392.5,145.6,387.9,141,382.3,141z M41.9,161.4h330.2v387.2l-73.9-0.1c0,0,0,0,0,0c-2.7,0-5.3,1.1-7.2,3
	c-1.9,1.9-3,4.5-3,7.2l0.1,73.9H41.9V161.4z M308.4,568.9l49.3,0l-49.2,49.2L308.4,568.9z"/>
</svg>
