<svg viewBox="0 0 409.9 246.5">
	<path class="st0" d="M58.7,82.1c3.5,1.5,7.5-0.1,9-3.6L88,31.1c5.7-11.4,14.6-16.7,28-16.7h95.6c16.6,0,31.9,8.8,42.3,24.6 l40.8,54.2c1.8,3.3,10.2,16.8,26.1,16.8h20.5c29.3,0,40.9,16.2,45.4,27.3h-11.3c-3.8,0-6.8,3.1-6.8,6.8c0,3.8,3.1,6.8,6.8,6.8 h14.7l5.6,34.6c0.5,1.8,0.3,3.2-0.5,4.2c-1,1.4-3.3,2.1-6.2,2.1h-21c-3.3-23.1-23.2-41-47.2-41c-26.3,0-47.8,21.4-47.8,47.8 c0,26.4,21.4,47.8,47.8,47.8c24,0,43.9-17.8,47.2-41h21c7.2,0,13.3-2.6,17-7.5c3.4-4.4,4.4-10.1,3-15.4l-6.4-39.9 c-4.5-22.5-23-46.4-61.3-46.4h-20.5c-9.1,0-14.2-9.8-14.2-9.8c-0.2-0.4-0.4-0.8-0.7-1.1l-40.8-54.3c-12.5-19-32.5-30.4-53.4-30.4  h-95.6c-18.7,0-32.2,8.2-40.4,24.6L55.2,73.2C53.7,76.6,55.3,80.7,58.7,82.1L58.7,82.1z M320.8,232.9c-18.8,0-34.1-15.3-34.1-34.1 c0-18.8,15.3-34.1,34.1-34.1c18.8,0,34.1,15.3,34.1,34.1C354.9,217.6,339.6,232.9,320.8,232.9L320.8,232.9z M320.8,232.9"/>
	<path d="M20.5,205.6H24c3.8,0,6.8-3.1,6.8-6.8c0-3.8-3.1-6.8-6.8-6.8h-3.5c-3.8,0-6.8-3.1-6.8-6.8V151h6.8c3.8,0,6.8-3.1,6.8-6.8 c0-3.8-3.1-6.8-6.8-6.8h-6.8v-20.5c0-3.8,3.1-6.8,6.8-6.8h130.9l12.6,62.8c0.6,3.2,3.5,5.5,6.7,5.5c0.4,0,0.9,0,1.3-0.1 c3.7-0.7,6.1-4.3,5.4-8l-12-60.1h114.5c3.8,0,6.8-3.1,6.8-6.8c0-3.8-3.1-6.8-6.8-6.8h-23.1l8.7-17.4c1.7-3.4,0.3-7.5-3.1-9.2 c-3.4-1.7-7.5-0.3-9.2,3.1l-11.8,23.5h-77.6V34.9c0-3.8-3.1-6.8-6.8-6.8c-3.8,0-6.8,3.1-6.8,6.8v61.4H20.5 C9.2,96.3,0,105.5,0,116.8v68.3C0,196.4,9.2,205.6,20.5,205.6L20.5,205.6z M20.5,205.6"/>
	<path d="M259.4,198.7c0-3.8-3.1-6.8-6.8-6.8H136c-3.3-23.1-23.2-41-47.2-41C62.4,151,41,172.4,41,198.7c0,26.4,21.4,47.8,47.8,47.8 c24,0,43.9-17.8,47.2-41h116.5C256.3,205.6,259.4,202.5,259.4,198.7L259.4,198.7z M88.7,232.9c-18.8,0-34.1-15.3-34.1-34.1 c0-18.8,15.3-34.1,34.1-34.1s34.1,15.3,34.1,34.1C122.9,217.6,107.6,232.9,88.7,232.9L88.7,232.9z M88.7,232.9"/>
	<path d="M320.8,178.3c-11.3,0-20.5,9.2-20.5,20.5c0,11.3,9.2,20.5,20.5,20.5c11.3,0,20.5-9.2,20.5-20.5 C341.3,187.5,332.1,178.3,320.8,178.3L320.8,178.3z M320.8,205.6c-3.8,0-6.8-3.1-6.8-6.8c0-3.8,3.1-6.8,6.8-6.8 c3.8,0,6.8,3.1,6.8,6.8C327.6,202.5,324.6,205.6,320.8,205.6L320.8,205.6z M320.8,205.6"/>
	<path d="M191.1,123.7c-3.8,0-6.8,3.1-6.8,6.8c0,3.8,3.1,6.8,6.8,6.8h6.8c3.8,0,6.8-3.1,6.8-6.8c0-3.8-3.1-6.8-6.8-6.8H191.1z M191.1,123.7"/>
	<path d="M88.7,178.3c-11.3,0-20.5,9.2-20.5,20.5c0,11.3,9.2,20.5,20.5,20.5c11.3,0,20.5-9.2,20.5-20.5 C109.2,187.5,100,178.3,88.7,178.3L88.7,178.3z M88.7,205.6c-3.8,0-6.8-3.1-6.8-6.8c0-3.8,3.1-6.8,6.8-6.8c3.8,0,6.8,3.1,6.8,6.8 C95.6,202.5,92.5,205.6,88.7,205.6L88.7,205.6z M88.7,205.6"/>
</svg>