<svg viewBox="0 0 409.9 328.6">
	<path d="M400.8,173.6l-18.7-18.7l-6.6-78.9c0-18.8-15.3-34.1-34.1-34.1h-47.8c-3.8,0-6.8,3.1-6.8,6.8c0,3.8,3.1,6.8,6.8,6.8h47.8 c11.1,0,20.5,9.4,20.5,21l6.2,74.5h-22.5l8.7-17.4c1.7-3.4,0.3-7.5-3.1-9.2c-3.4-1.7-7.5-0.3-9.2,3.1l-11.8,23.5h-36.7 c-3.8,0-6.8,3.1-6.8,6.8c0,3.8,3.1,6.8,6.8,6.8h79.1l18.5,18.5c3.9,3.9,4.8,12.8,4.8,15.7v6.8h-6.8c-3.8,0-6.8,3.1-6.8,6.8 c0,3.8,3.1,6.8,6.8,6.8h6.8V274h-14.2c-3.3-23.1-23.2-41-47.2-41c-26.4,0-47.8,21.4-47.8,47.8c0,26.4,21.4,47.8,47.8,47.8 c24,0,43.9-17.8,47.2-41h21c3.8,0,6.8-3.1,6.8-6.8v-81.9C409.6,197.3,409.4,182.2,400.8,173.6L400.8,173.6z M334.5,315 c-18.8,0-34.1-15.3-34.1-34.1c0-18.8,15.3-34.1,34.1-34.1c18.8,0,34.1,15.3,34.1,34.1C368.6,299.7,353.3,315,334.5,315L334.5,315z M334.5,315"/>
	<path d="M102.4,260.4c-11.3,0-20.5,9.2-20.5,20.5c0,11.3,9.2,20.5,20.5,20.5c11.3,0,20.5-9.2,20.5-20.5 C122.9,269.6,113.7,260.4,102.4,260.4L102.4,260.4z  M102.4,287.7c-3.8,0-6.8-3.1-6.8-6.8c0-3.8,3.1-6.8,6.8-6.8 c3.8,0,6.8,3.1,6.8,6.8C109.2,284.6,106.2,287.7,102.4,287.7L102.4,287.7z M102.4,287.7"/>
	<path class="st0" d="M334.5,260.4c-11.3,0-20.5,9.2-20.5,20.5c0,11.3,9.2,20.5,20.5,20.5c11.3,0,20.5-9.2,20.5-20.5 C355,269.6,345.8,260.4,334.5,260.4L334.5,260.4z M334.5,287.7c-3.8,0-6.8-3.1-6.8-6.8c0-3.8,3.1-6.8,6.8-6.8 c3.8,0,6.8,3.1,6.8,6.8C341.3,284.6,338.3,287.7,334.5,287.7L334.5,287.7z M334.5,287.7"/>
	<path class="st0" d="M266.2,1H34.1C15.3,1,0,16.3,0,35.1v218.5c0,19.1,15,34.1,34.1,34.1c3.8,0,6.8-3.1,6.8-6.8 c0-3.8-3.1-6.8-6.8-6.8c-11.5,0-20.5-9-20.5-20.5V35.1c0-11.3,9.2-20.5,20.5-20.5h225.3v191.1H34.1c-3.8,0-6.8,3.1-6.8,6.8 c0,3.8,3.1,6.8,6.8,6.8h225.3V274H149.6c-3.3-23.1-23.2-41-47.2-41c-26.4,0-47.8,21.4-47.8,47.8c0,26.3,21.4,47.8,47.8,47.8 c24,0,43.9-17.8,47.2-41h116.6c3.8,0,6.8-3.1,6.8-6.8V7.8C273.1,4,270,1,266.2,1L266.2,1z M102.4,315c-18.8,0-34.1-15.3-34.1-34.1 c0-18.8,15.3-34.1,34.1-34.1c18.8,0,34.1,15.3,34.1,34.1C136.5,299.7,121.2,315,102.4,315L102.4,315z M102.4,315"/>
</svg>
